<?xml version="1.0" encoding="UTF-8"?>
<svg version="1.1" xmlns="http://www.w3.org/2000/svg" width="96" height="96">
<path d="M0 0 C1.98 0 3.96 0 6 0 C7.67313323 3.28841876 9.33739607 6.58124682 11 9.875 C11.47695313 10.81214844 11.95390625 11.74929687 12.4453125 12.71484375 C12.89648438 13.61074219 13.34765625 14.50664062 13.8125 15.4296875 C14.23144531 16.25710449 14.65039062 17.08452148 15.08203125 17.93701172 C16 20 16 20 16 22 C16.71542969 22.04898438 17.43085937 22.09796875 18.16796875 22.1484375 C38.32115677 23.66057839 38.32115677 23.66057839 43 26 C43.50390625 28.51953125 43.50390625 28.51953125 43 32 C39.96866429 35.63467403 36.22465341 38.61325918 32.59960938 41.63867188 C28.28582236 45.48286752 28.28582236 45.48286752 26.70727539 50.84594727 C26.95476958 53.63909597 27.38621412 56.26615866 28 59 C28.90628377 64.73979719 29.10496624 70.20353114 29 76 C21.93871763 76.9399759 16.80584822 72.84411332 10.98828125 69.37890625 C6.22617521 66.57285435 6.22617521 66.57285435 0.875 66.4375 C-0.07375 66.953125 -1.0225 67.46875 -2 68 C-2.58330078 68.30824707 -3.16660156 68.61649414 -3.76757812 68.93408203 C-6.35505945 70.31946823 -8.89905156 71.77414324 -11.43359375 73.25390625 C-15.46920779 75.50691777 -18.24705669 76.45475692 -23 76 C-23.27850934 69.14557565 -22.62214716 62.7346029 -21.4375 55.98046875 C-21.02445762 53.16661752 -20.72700478 50.82853383 -21 48 C-22.4431488 45.96696963 -22.4431488 45.96696963 -24.5 44.22265625 C-25.221875 43.54396484 -25.94375 42.86527344 -26.6875 42.16601562 C-28.22722375 40.7654392 -29.7688885 39.3669936 -31.3125 37.97070312 C-36.89889604 32.70851757 -36.89889604 32.70851757 -37.5 28.49609375 C-37.335 27.67238281 -37.17 26.84867188 -37 26 C-28.01728306 24.20796488 -19.16191918 22.56291453 -10 22 C-9.75507812 21.18273437 -9.51015625 20.36546875 -9.2578125 19.5234375 C-7.77452388 15.36838676 -5.88199051 11.54678711 -3.875 7.625 C-3.50246094 6.88894531 -3.12992188 6.15289062 -2.74609375 5.39453125 C-1.8343878 3.59449642 -0.91770068 1.79698598 0 0 Z M2 12 C0.82845707 14.28929053 -0.33738074 16.58118362 -1.5 18.875 C-1.83386719 19.52597656 -2.16773437 20.17695313 -2.51171875 20.84765625 C-4.36843717 24.2524471 -4.36843717 24.2524471 -5 28 C-11.93 28.99 -18.86 29.98 -26 31 C-20.70392516 37.57223454 -20.70392516 37.57223454 -16.625 40.8125 C-14.06522541 43.34554065 -13.60253209 45.03926866 -13.5625 48.625 C-13.6746307 50.41909128 -13.82359309 52.21108485 -14 54 C-14.08121094 55.093125 -14.16242187 56.18625 -14.24609375 57.3125 C-14.46833614 60.21190839 -14.72149514 63.10553874 -15 66 C-10.65458179 64.34238949 -6.66996279 62.25642968 -2.59765625 60.0234375 C1.12016922 58.55867017 4.06176176 58.31443656 7.8815918 59.66552734 C9.9137164 60.55153667 11.89379316 61.50555703 13.875 62.5 C14.56335937 62.83386719 15.25171875 63.16773438 15.9609375 63.51171875 C17.64573446 64.33071727 19.32360619 65.16393591 21 66 C20.89171875 64.87464844 20.89171875 64.87464844 20.78125 63.7265625 C20.58684945 61.58275648 20.41789368 59.43654577 20.26953125 57.2890625 C20.06542773 54.1008849 20.06542773 54.1008849 19.51171875 51.3984375 C19.03301171 47.85715894 18.96662538 45.38338172 21.18212891 42.41748047 C23.74696745 39.54744374 26.51164183 36.93973824 29.375 34.37109375 C30.24125 33.58863281 31.1075 32.80617188 32 32 C32 31.67 32 31.34 32 31 C25.07 30.01 18.14 29.02 11 28 C10.34 26.02 9.68 24.04 9 22 C8.15959195 20.19184935 7.28582942 18.39872044 6.375 16.625 C5.92898437 15.75101563 5.48296875 14.87703125 5.0234375 13.9765625 C4.68570313 13.32429688 4.34796875 12.67203125 4 12 C3.34 12 2.68 12 2 12 Z " fill="#000000" transform="translate(45,10)"/>
</svg>
