<?xml version="1.0" encoding="UTF-8"?>
<svg version="1.1" xmlns="http://www.w3.org/2000/svg" width="96" height="96">
<path d="M0 0 C1.98 0 3.96 0 6 0 C7.67313323 3.28841876 9.33739607 6.58124682 11 9.875 C11.47695313 10.81214844 11.95390625 11.74929687 12.4453125 12.71484375 C12.89648438 13.61074219 13.34765625 14.50664062 13.8125 15.4296875 C14.23144531 16.25710449 14.65039062 17.08452148 15.08203125 17.93701172 C16 20 16 20 16 22 C16.71542969 22.04898438 17.43085937 22.09796875 18.16796875 22.1484375 C38.32115677 23.66057839 38.32115677 23.66057839 43 26 C43.50390625 28.51953125 43.50390625 28.51953125 43 32 C39.96866429 35.63467403 36.22465341 38.61325918 32.59960938 41.63867188 C28.28582236 45.48286752 28.28582236 45.48286752 26.70727539 50.84594727 C26.95476958 53.63909597 27.38621412 56.26615866 28 59 C28.90628377 64.73979719 29.10496624 70.20353114 29 76 C21.93871763 76.9399759 16.80584822 72.84411332 10.98828125 69.37890625 C6.22617521 66.57285435 6.22617521 66.57285435 0.875 66.4375 C-0.07375 66.953125 -1.0225 67.46875 -2 68 C-2.58330078 68.30824707 -3.16660156 68.61649414 -3.76757812 68.93408203 C-6.35505945 70.31946823 -8.89905156 71.77414324 -11.43359375 73.25390625 C-15.46920779 75.50691777 -18.24705669 76.45475692 -23 76 C-23.27850934 69.14557565 -22.62214716 62.7346029 -21.4375 55.98046875 C-21.02445762 53.16661752 -20.72700478 50.82853383 -21 48 C-22.4431488 45.96696963 -22.4431488 45.96696963 -24.5 44.22265625 C-25.221875 43.54396484 -25.94375 42.86527344 -26.6875 42.16601562 C-28.22722375 40.7654392 -29.7688885 39.3669936 -31.3125 37.97070312 C-36.89889604 32.70851757 -36.89889604 32.70851757 -37.5 28.49609375 C-37.335 27.67238281 -37.17 26.84867188 -37 26 C-28.01728306 24.20796488 -19.16191918 22.56291453 -10 22 C-9.75507812 21.18273437 -9.51015625 20.36546875 -9.2578125 19.5234375 C-7.77452388 15.36838676 -5.88199051 11.54678711 -3.875 7.625 C-3.50246094 6.88894531 -3.12992188 6.15289062 -2.74609375 5.39453125 C-1.8343878 3.59449642 -0.91770068 1.79698598 0 0 Z " fill="#FFF500" transform="translate(45,10)"/>
</svg>
